PathFileType	4	(X/Y/Z)	OpenSim_Sub08_EMGBaseline_Magnet.trc
DataRate	CameraRate	NumFrames	NumMarkers	Units	OrigDataRate	OrigDataStartFrame	OrigNumFrames
100	100	23	8	m	100	3328	6654
Frame#	Time	torso_imu_offset_imu	pelvis_imu_offset_imu	tibia_r_imu_offset_imu	femur_r_imu_offset_imu	tibia_l_imu_offset_imu	femur_l_imu_offset_imu	toes_r_imu_offset_imu	toes_l_imu_offset_imu
				X1	Y1	Z1	X2	Y2	Z2	X3	Y3	Z3	X4	Y4	Z4	X5	Y5	Z5	X6	Y6	Z6	X7	Y7	Z7	X8		Y8	Z8	

3328	33.27000000	-0.94070544	-0.13651608	0.05662854	-0.65884970	0.20218062	-0.65082377	-0.68379507	-0.43064302	-0.11951073	-0.85565511	-0.09557333	-0.08310764	-0.56768564	0.46539746	0.36833139	-0.65691478	0.25515693	0.44737422	-0.56513170	-0.25535066	-0.50413822	-0.72089334	-0.21402943	-0.36224622
3329	33.28000000	-0.94146310	-0.14127011	0.05190616	-0.66109804	0.20161666	-0.64771006	-0.69990318	-0.40303067	-0.12742738	-0.85739182	-0.09663840	-0.09019209	-0.56854347	0.46790586	0.37266375	-0.65167644	0.25914196	0.45063374	-0.55324914	-0.23378106	-0.52081693	-0.72511407	-0.21512202	-0.36129926
3330	33.29000000	-0.94046685	-0.14020393	0.05841499	-0.66165788	0.19849341	-0.64542973	-0.71382900	-0.36988260	-0.12541187	-0.85833736	-0.10143994	-0.09260313	-0.56274083	0.47790391	0.37117079	-0.64767636	0.26060781	0.45031172	-0.54179309	-0.21322385	-0.54304085	-0.73011606	-0.20904025	-0.36894353
3331	33.30000000	-0.94390710	-0.14252378	0.06560208	-0.66079691	0.19926473	-0.64721168	-0.72906267	-0.33671688	-0.12731100	-0.85695722	-0.10147627	-0.09585725	-0.56038884	0.48165207	0.37161218	-0.64931500	0.26496990	0.44913315	-0.52745942	-0.18826441	-0.56672968	-0.72559101	-0.20793532	-0.36703148
3332	33.31000000	-0.94065507	-0.14378924	0.07016977	-0.65564054	0.20264410	-0.64264735	-0.73886862	-0.30988400	-0.12848163	-0.85198221	-0.10874144	-0.10142268	-0.55684103	0.48417075	0.36968221	-0.64458915	0.27532477	0.44823685	-0.51428533	-0.16610007	-0.58434739	-0.73090134	-0.20773452	-0.36914276
3333	33.32000000	-0.93231624	-0.14038259	0.06645129	-0.66146570	0.20135010	-0.64125164	-0.75271014	-0.28675863	-0.12710539	-0.85256042	-0.11310304	-0.11146053	-0.55272912	0.48592350	0.37044997	-0.64088976	0.28011311	0.45071807	-0.50119930	-0.13762201	-0.60068973	-0.73331973	-0.20482542	-0.36838609
3334	33.33000000	-0.93939864	-0.14360369	0.06355549	-0.66039880	0.19818256	-0.64776966	-0.76706203	-0.25928191	-0.12482352	-0.85304720	-0.11585934	-0.11412846	-0.54224503	0.49430652	0.37740747	-0.63393627	0.27603467	0.45401035	-0.48622576	-0.11076921	-0.61491387	-0.73842227	-0.20311791	-0.36580768
3335	33.34000000	-0.94087345	-0.14158120	0.07307399	-0.66077711	0.19545670	-0.64832705	-0.77582200	-0.24415329	-0.12623817	-0.84945582	-0.12300636	-0.11567826	-0.53756129	0.50261595	0.37836089	-0.63362908	0.28352374	0.45687000	-0.47862727	-0.09389364	-0.62563243	-0.74276838	-0.19601425	-0.36862905
3336	33.35000000	-0.93738312	-0.14590541	0.07535379	-0.65869615	0.19555243	-0.64401650	-0.77898687	-0.22344210	-0.12561186	-0.84701780	-0.12422261	-0.11337737	-0.53680164	0.50736664	0.37549624	-0.62733049	0.29484399	0.45695893	-0.46956407	-0.07962209	-0.63458801	-0.74913232	-0.19395147	-0.37241621
3337	33.36000000	-0.93853311	-0.14217648	0.07325437	-0.65727322	0.19112658	-0.64638481	-0.78114822	-0.20463464	-0.12482732	-0.84996320	-0.13208818	-0.11574511	-0.53219820	0.50886497	0.37877053	-0.63052092	0.29762064	0.46029969	-0.46454838	-0.06962836	-0.63980725	-0.75827443	-0.19355596	-0.36654031
3338	33.37000000	-0.94063987	-0.13948956	0.07486739	-0.65958705	0.18571473	-0.65050381	-0.78247672	-0.19159034	-0.12505169	-0.84630757	-0.13893478	-0.12268159	-0.52572491	0.51253356	0.38358934	-0.62552654	0.30201770	0.45912014	-0.46287096	-0.05598016	-0.64559156	-0.76209583	-0.19125194	-0.35481638
3339	33.38000000	-0.93946418	-0.14235142	0.07874120	-0.65444662	0.18607823	-0.65129297	-0.78786274	-0.18445030	-0.12105918	-0.83963462	-0.14325055	-0.11939829	-0.51907876	0.52089952	0.38090325	-0.62439640	0.30385459	0.45667484	-0.46092229	-0.04765261	-0.65276941	-0.76757592	-0.18908281	-0.35151832
3340	33.39000000	-0.94135908	-0.14246552	0.07724314	-0.65235414	0.18781894	-0.65297134	-0.79171084	-0.18410198	-0.11981969	-0.83924286	-0.15418045	-0.11527623	-0.51764114	0.52769522	0.38011993	-0.62667732	0.31020034	0.45844264	-0.45504620	-0.04062299	-0.64775103	-0.77359020	-0.19295947	-0.34320338
3341	33.40000000	-0.94098988	-0.14748969	0.07961275	-0.64878990	0.18717146	-0.65857059	-0.78925342	-0.18419625	-0.11992247	-0.83988148	-0.15554034	-0.11909635	-0.51018938	0.53347116	0.38212440	-0.62452415	0.31504850	0.45429302	-0.45697829	-0.03034557	-0.64614513	-0.77271698	-0.19528249	-0.33871979
3342	33.41000000	-0.94086481	-0.14288590	0.07917898	-0.64981069	0.18863584	-0.66108299	-0.78911334	-0.18986803	-0.11613663	-0.83577557	-0.15597842	-0.12294627	-0.49891190	0.54196045	0.38512395	-0.61739736	0.32142033	0.45685937	-0.46448408	-0.02829232	-0.64409756	-0.77706460	-0.19337511	-0.33122968
3343	33.42000000	-0.94259517	-0.14479770	0.07819536	-0.64380553	0.18875131	-0.66157003	-0.79015062	-0.20023056	-0.11593252	-0.84184458	-0.15775040	-0.11955141	-0.49288481	0.54842091	0.38662853	-0.61536076	0.32454109	0.45880635	-0.46873344	-0.02666277	-0.63745952	-0.78531027	-0.19764057	-0.31929775
3344	33.43000000	-0.94016370	-0.14632403	0.07705790	-0.64229926	0.18872520	-0.66359325	-0.77989714	-0.20792392	-0.11162638	-0.84039517	-0.15362606	-0.11711759	-0.48646081	0.55472341	0.38449949	-0.61651831	0.32618482	0.44710695	-0.47738004	-0.02809404	-0.63002488	-0.79256795	-0.19639818	-0.31015367
3345	33.44000000	-0.93321136	-0.14526703	0.07579766	-0.64539259	0.19255389	-0.66272111	-0.78332548	-0.21788846	-0.10256644	-0.84161975	-0.15615336	-0.11123417	-0.47497379	0.56367476	0.38306137	-0.61748502	0.33051812	0.44779402	-0.49032236	-0.02368370	-0.62425507	-0.79711044	-0.19927751	-0.30122354
3346	33.45000000	-0.93653785	-0.14283650	0.07060992	-0.64679126	0.19593773	-0.66576212	-0.77756240	-0.23166302	-0.09082842	-0.84288928	-0.15972234	-0.10445754	-0.46880989	0.57196325	0.38153222	-0.61106051	0.34168678	0.45442649	-0.50018663	-0.02189992	-0.61609482	-0.79800753	-0.20634452	-0.28317568
3347	33.46000000	-0.93927327	-0.14104876	0.07249646	-0.63957757	0.19663364	-0.66621871	-0.77633865	-0.24580618	-0.09027923	-0.83704193	-0.16133410	-0.09526640	-0.46328578	0.57842643	0.37857958	-0.61143366	0.34903327	0.44823537	-0.50918966	-0.03428972	-0.60237460	-0.79860311	-0.20822587	-0.27067472
3348	33.47000000	-0.93933475	-0.14333621	0.07254514	-0.63396264	0.19429412	-0.65951814	-0.77683148	-0.25161299	-0.09443526	-0.83795493	-0.16426155	-0.08540843	-0.45380531	0.58861789	0.37813266	-0.60902379	0.35175868	0.44429772	-0.51512705	-0.03863613	-0.59599210	-0.80561999	-0.20961158	-0.25640894
3349	33.48000000	-0.94230240	-0.14643187	0.06779285	-0.63939132	0.20117136	-0.66450473	-0.77971486	-0.25133628	-0.09127133	-0.84532213	-0.16919422	-0.07779761	-0.44553251	0.59480832	0.38112157	-0.60848790	0.35920068	0.44941834	-0.52969402	-0.03854268	-0.58353712	-0.80972152	-0.21497537	-0.23857215
3350	33.49000000	-0.94200793	-0.14596319	0.06597542	-0.63537594	0.20431214	-0.66765488	-0.77915088	-0.24863821	-0.09340890	-0.84113817	-0.17673286	-0.06952310	-0.43585146	0.60624425	0.37587825	-0.60505132	0.36437771	0.44899489	-0.54994079	-0.03838143	-0.56901526	-0.81230418	-0.21880778	-0.21311457
